<?xml version="1.0" encoding="UTF-8" standalone="no"?>
<svg
   viewBox="0 -256 48 48"
   id="svg2989"
   version="1.1"
   inkscape:version="1.2.2 (b0a8486541, 2022-12-01)"
   width="48"
   height="48"
   sodipodi:docname="email.svg"
   xmlns:inkscape="http://www.inkscape.org/namespaces/inkscape"
   xmlns:sodipodi="http://sodipodi.sourceforge.net/DTD/sodipodi-0.dtd"
   xmlns="http://www.w3.org/2000/svg"
   xmlns:svg="http://www.w3.org/2000/svg"
   xmlns:rdf="http://www.w3.org/1999/02/22-rdf-syntax-ns#"
   xmlns:cc="http://creativecommons.org/ns#"
   xmlns:dc="http://purl.org/dc/elements/1.1/">
  <metadata
     id="metadata2999">
    <rdf:RDF>
      <cc:Work
         rdf:about="">
        <dc:format>image/svg+xml</dc:format>
        <dc:type
           rdf:resource="http://purl.org/dc/dcmitype/StillImage" />
      </cc:Work>
    </rdf:RDF>
  </metadata>
  <defs
     id="defs2997" />
  <sodipodi:namedview
     pagecolor="#ffffff"
     bordercolor="#666666"
     borderopacity="1"
     objecttolerance="10"
     gridtolerance="10"
     guidetolerance="10"
     inkscape:pageopacity="0"
     inkscape:pageshadow="2"
     inkscape:window-width="1920"
     inkscape:window-height="1012"
     id="namedview2995"
     showgrid="false"
     inkscape:zoom="8.4285715"
     inkscape:cx="14.771186"
     inkscape:cy="31.084746"
     inkscape:window-x="0"
     inkscape:window-y="0"
     inkscape:window-maximized="1"
     inkscape:current-layer="svg2989"
     inkscape:showpageshadow="0"
     inkscape:pagecheckerboard="0"
     inkscape:deskcolor="#d1d1d1">
    <inkscape:grid
       type="xygrid"
       id="grid622" />
  </sodipodi:namedview>
  <path
     id="path4202"
     style="opacity:0.12;fill:#000000;fill-opacity:1;stroke-linecap:round;stroke-linejoin:round"
     d="m 6.75,-243.5 c -0.2031248,0 -0.3789064,0.0742 -0.5273438,0.22266 C 6.0742189,-243.12891 6,-242.95312 6,-242.75 c 0,2.625 1.1484398,4.84375 3.4453125,6.65625 3.0156215,2.375 6.1484405,4.85157 9.3984375,7.42969 0.09375,0.0781 0.367188,0.30859 0.820312,0.6914 0.453125,0.38282 0.812501,0.67579 1.078126,0.87891 0.265624,0.20312 0.613281,0.44922 1.042968,0.73828 0.429687,0.28906 0.824219,0.50391 1.183594,0.64453 0.359375,0.14063 0.695313,0.21094 1.007812,0.21094 H 24 24.02344 c 0.312499,0 0.648437,-0.0703 1.007812,-0.21094 0.359375,-0.14062 0.753907,-0.35547 1.183594,-0.64453 0.429687,-0.28906 0.777344,-0.53516 1.042968,-0.73828 0.265625,-0.20312 0.625001,-0.49609 1.078126,-0.87891 0.453124,-0.38281 0.726562,-0.61328 0.820312,-0.6914 3.249997,-2.57812 6.382816,-5.05469 9.398438,-7.42969 0.843749,-0.67187 1.628906,-1.57422 2.355468,-2.70703 C 41.636718,-239.93359 42,-240.96094 42,-241.88281 v -0.25781 -0.31641 l -0.01172,-0.30469 c -0.0078,-0.20312 -0.03125,-0.30078 -0.07031,-0.29297 -0.03906,0.008 -0.08203,-0.0625 -0.128907,-0.21093 -0.04687,-0.14844 -0.117187,-0.20704 -0.210937,-0.17579 -0.09375,0.0312 -0.203125,0.0117 -0.328125,-0.0586 z M 6,-235.25 v 18 c 0,0.20312 0.074219,0.37891 0.2226562,0.52734 C 6.3710936,-216.57422 6.5468752,-216.5 6.75,-216.5 h 34.5 c 0.203125,0 0.378906,-0.0742 0.527344,-0.22266 C 41.925781,-216.87109 42,-217.04688 42,-217.25 v -18 c -0.5,0.5625 -1.039063,1.07813 -1.617188,1.54688 -4.187495,3.21874 -7.515627,5.85937 -9.984374,7.92187 -0.796875,0.67187 -1.445313,1.19531 -1.945313,1.57031 -0.5,0.375 -1.175782,0.75391 -2.027344,1.13672 -0.851561,0.38281 -1.652344,0.57422 -2.402343,0.57422 H 24 23.976562 c -0.749999,0 -1.550782,-0.19141 -2.402343,-0.57422 -0.851562,-0.38281 -1.527344,-0.76172 -2.027344,-1.13672 -0.5,-0.375 -1.148438,-0.89844 -1.945313,-1.57031 -2.468747,-2.0625 -5.796879,-4.70313 -9.9843745,-7.92187 C 7.0390631,-234.17187 6.4999995,-234.6875 6,-235.25 Z"
     sodipodi:nodetypes="scscccsscscscsssccssccsssscscsssssscccssscsssccc" />
  <path
     id="rect624"
     style="opacity:1;fill:#fc402f;fill-opacity:1;stroke-linecap:round;stroke-linejoin:round"
     d="m 6.75,-245.5 c -0.2031248,0 -0.3789064,0.0742 -0.5273438,0.22266 C 6.0742189,-245.12891 6,-244.95312 6,-244.75 c 0,2.625 1.1484398,4.84375 3.4453125,6.65625 3.0156215,2.375 6.1484405,4.85157 9.3984375,7.42969 0.09375,0.0781 0.367188,0.30859 0.820312,0.6914 0.453125,0.38282 0.812501,0.67579 1.078126,0.87891 0.265624,0.20312 0.613281,0.44922 1.042968,0.73828 0.429687,0.28906 0.824219,0.50391 1.183594,0.64453 0.359375,0.14063 0.695313,0.21094 1.007812,0.21094 H 24 h 0.02344 c 0.312499,0 0.648437,-0.0703 1.007812,-0.21094 0.359375,-0.14062 0.753907,-0.35547 1.183594,-0.64453 0.429687,-0.28906 0.777344,-0.53516 1.042968,-0.73828 0.265625,-0.20312 0.625001,-0.49609 1.078126,-0.87891 0.453124,-0.38281 0.726562,-0.61328 0.820312,-0.6914 3.249997,-2.57812 6.382816,-5.05469 9.398438,-7.42969 0.843749,-0.67187 1.628906,-1.57422 2.355468,-2.70703 C 41.636718,-241.93359 42,-242.96094 42,-243.88281 v -0.25781 -0.31641 l -0.01172,-0.30469 c -0.0078,-0.20312 -0.03125,-0.30078 -0.07031,-0.29297 -0.03906,0.008 -0.08203,-0.0625 -0.128907,-0.21093 -0.04687,-0.14844 -0.117187,-0.20704 -0.210937,-0.17579 -0.09375,0.0312 -0.203125,0.0117 -0.328125,-0.0586 z M 6,-237.25 v 18 c 0,0.20312 0.074219,0.37891 0.2226562,0.52734 C 6.3710936,-218.57422 6.5468752,-218.5 6.75,-218.5 h 34.5 c 0.203125,0 0.378906,-0.0742 0.527344,-0.22266 C 41.925781,-218.87109 42,-219.04688 42,-219.25 v -18 c -0.5,0.5625 -1.039063,1.07813 -1.617188,1.54688 -4.187495,3.21874 -7.515627,5.85937 -9.984374,7.92187 -0.796875,0.67187 -1.445313,1.19531 -1.945313,1.57031 -0.5,0.375 -1.175782,0.75391 -2.027344,1.13672 -0.851561,0.38281 -1.652344,0.57422 -2.402343,0.57422 H 24 23.976562 c -0.749999,0 -1.550782,-0.19141 -2.402343,-0.57422 -0.851562,-0.38281 -1.527344,-0.76172 -2.027344,-1.13672 -0.5,-0.375 -1.148438,-0.89844 -1.945313,-1.57031 -2.468747,-2.0625 -5.796879,-4.70313 -9.9843745,-7.92187 C 7.0390631,-236.17187 6.4999995,-236.6875 6,-237.25 Z"
     sodipodi:nodetypes="scscccsscscscsssccssccsssscscsssssscccssscsssccc" />
  <g
     transform="matrix(0.0234375,0,0,-0.0234375,3,-218.5)"
     id="g2991" />
</svg>
