<?xml version="1.0" encoding="UTF-8" standalone="no"?>
<!-- Created with Inkscape (http://www.inkscape.org/) -->

<svg
   width="210mm"
   height="297mm"
   viewBox="0 0 210 297"
   version="1.1"
   id="svg1"
   inkscape:version="1.3.2 (091e20ef0f, 2023-11-25, custom)"
   sodipodi:docname="paper-reverse.svg"
   xmlns:inkscape="http://www.inkscape.org/namespaces/inkscape"
   xmlns:sodipodi="http://sodipodi.sourceforge.net/DTD/sodipodi-0.dtd"
   xmlns="http://www.w3.org/2000/svg"
   xmlns:svg="http://www.w3.org/2000/svg">
  <sodipodi:namedview
     id="namedview1"
     pagecolor="#ffffff"
     bordercolor="#000000"
     borderopacity="0.25"
     inkscape:showpageshadow="2"
     inkscape:pageopacity="0.0"
     inkscape:pagecheckerboard="0"
     inkscape:deskcolor="#d1d1d1"
     inkscape:document-units="mm"
     inkscape:zoom="0.91296226"
     inkscape:cx="331.88666"
     inkscape:cy="709.22975"
     inkscape:window-width="1920"
     inkscape:window-height="1018"
     inkscape:window-x="0"
     inkscape:window-y="26"
     inkscape:window-maximized="1"
     inkscape:current-layer="g62" />
  <defs
     id="defs1">
    <inkscape:path-effect
       effect="powerclip"
       id="path-effect2"
       is_visible="true"
       lpeversion="1"
       inverse="true"
       flatten="false"
       hide_clip="false"
       message="Use fill-rule evenodd on &lt;b&gt;fill and stroke&lt;/b&gt; dialogue if no flatten result after convert clip to paths." />
    <inkscape:path-effect
       effect="spiro"
       id="path-effect110"
       is_visible="true"
       lpeversion="1" />
    <inkscape:path-effect
       effect="spiro"
       id="path-effect111"
       is_visible="true"
       lpeversion="1" />
    <inkscape:path-effect
       effect="spiro"
       id="path-effect112"
       is_visible="true"
       lpeversion="1" />
    <inkscape:path-effect
       effect="spiro"
       id="path-effect113"
       is_visible="true"
       lpeversion="1" />
    <inkscape:path-effect
       effect="spiro"
       id="path-effect114"
       is_visible="true"
       lpeversion="1" />
    <clipPath
       clipPathUnits="userSpaceOnUse"
       id="clipPath1">
      <rect
         style="display:none;fill:#ffffff;fill-opacity:1;stroke:none;stroke-width:1.13748;stroke-linecap:round;stroke-linejoin:round;stroke-opacity:1"
         id="rect2"
         width="142.875"
         height="177.27084"
         x="489.70776"
         y="397.54431"
         rx="9.6477006e-06"
         ry="9.6477006e-06" />
      <path
         id="lpe_path-effect2"
         style="fill:#ffffff;fill-opacity:1;stroke:none;stroke-width:1.13748;stroke-linecap:round;stroke-linejoin:round;stroke-opacity:1"
         class="powerclip"
         d="m 480.67584,396.96991 h 152.875 v 187.27084 h -152.875 z m 9.03193,0.5744 c 0,0 -10e-6,1e-5 -10e-6,1e-5 v 177.27083 c 0,0 10e-6,10e-6 10e-6,10e-6 h 142.87498 c 10e-6,0 10e-6,-10e-6 10e-6,-10e-6 V 397.54432 c 0,0 0,-1e-5 -10e-6,-1e-5 z" />
    </clipPath>
  </defs>
  <g
     inkscape:label="Layer 1"
     inkscape:groupmode="layer"
     id="layer1">
    <g
       id="g107"
       transform="translate(-260.80384,-439.68667)">
      <g
         id="g98"
         transform="rotate(2.6650769,-1682.2832,-3620.4399)"
         style="fill:#f7f3ef;fill-opacity:1;opacity:0.23530488"
         clip-path="url(#clipPath1)"
         inkscape:path-effect="#path-effect2">
        <path
           style="fill:#000000;fill-opacity:0.0783962;stroke:none;stroke-width:1.13748;stroke-linecap:round;stroke-linejoin:round;stroke-opacity:1"
           id="rect62"
           width="142.875"
           height="177.27084"
           x="485.67584"
           y="401.96991"
           rx="9.6477006e-06"
           ry="9.6477006e-06"
           sodipodi:type="rect"
           d="m 485.67585,401.96991 h 142.87498 c 10e-6,0 10e-6,0 10e-6,10e-6 v 177.27082 c 0,1e-5 0,1e-5 -10e-6,1e-5 H 485.67585 c 0,0 -1e-5,0 -1e-5,-1e-5 V 401.96992 c 0,-10e-6 1e-5,-10e-6 1e-5,-10e-6 z" />
      </g>
      <g
         id="g62"
         transform="rotate(2.6650769,378.35418,131.07757)"
         style="opacity:0.23530488">
        <rect
           style="fill:#ffffff;fill-opacity:1;stroke:none;stroke-width:1.13748;stroke-linecap:round;stroke-linejoin:round;stroke-opacity:1"
           id="rect108"
           width="142.875"
           height="177.27084"
           x="317.5"
           y="497.41663"
           rx="9.6477006e-06"
           ry="9.6477006e-06" />
        <path
           style="fill:none;fill-opacity:1;stroke:#db0000;stroke-width:2.11667;stroke-linecap:round;stroke-linejoin:round;stroke-dasharray:none;stroke-opacity:1"
           id="path108"
           sodipodi:type="arc"
           sodipodi:cx="341.41537"
           sodipodi:cy="523.0119"
           sodipodi:rx="13.229167"
           sodipodi:ry="13.229159"
           sodipodi:start="5.7586623"
           sodipodi:end="5.7137903"
           sodipodi:open="true"
           sodipodi:arc-type="arc"
           d="m 352.86605,516.38674 a 13.229167,13.229159 0 0 1 -4.69747,18.00079 13.229167,13.229159 0 0 1 -18.05237,-4.49524 13.229167,13.229159 0 0 1 4.29246,-18.10165 13.229167,13.229159 0 0 1 18.14867,4.08912" />
        <path
           style="fill:none;fill-opacity:1;stroke:#db0000;stroke-width:2.11667;stroke-linecap:round;stroke-linejoin:round;stroke-dasharray:none;stroke-opacity:1"
           d="m 431.50768,525.07014 c 0.0275,-0.89422 0.0716,-1.78793 0.13214,-2.68052 0.0794,-1.16965 0.18709,-2.33748 0.33028,-3.50104 0.10279,-0.83528 0.22396,-1.66957 0.26423,-2.51018 0.0243,-0.50642 0.0191,-1.0145 0.066,-1.51932 0.0436,-0.46942 0.13221,-0.93464 0.26424,-1.38721 -0.009,-0.28752 0.013,-0.57604 0.0661,-0.85876 0.10797,-0.57468 0.34377,-1.13291 0.33028,-1.71749 -0.003,-0.11117 -0.0141,-0.22359 0.007,-0.33273 0.0106,-0.0546 0.0296,-0.10799 0.0603,-0.15437 0.0307,-0.0464 0.0734,-0.0855 0.12451,-0.10742 0.0541,-0.0232 0.11604,-0.0263 0.17298,-0.0114 0.0569,0.0149 0.10879,0.0471 0.14954,0.0896 0.0815,0.0849 0.11634,0.20668 0.11565,0.32438 -6.9e-4,0.1177 -0.0337,0.23278 -0.0725,0.34388 -0.0389,0.1111 -0.084,0.22046 -0.11043,0.33515 -0.0442,0.19152 -0.0346,0.39348 0.0143,0.58386 0.0489,0.19037 0.13614,0.36958 0.24443,0.5336 0.21656,0.32806 0.51331,0.59341 0.79819,0.86427 1.42772,1.35745 2.62555,2.934 3.83136,4.49191 0.50685,0.65486 1.021,1.31271 1.65145,1.84962 0.45319,0.38595 0.96254,0.70584 1.38721,1.12297 0.69024,0.67797 1.11742,1.57128 1.65142,2.37808 0.16535,0.24983 0.34174,0.49235 0.52848,0.72662"
           id="path110"
           inkscape:path-effect="#path-effect110"
           inkscape:original-d="m 431.50768,525.07014 c -0.0196,-0.89955 0.10491,-1.78212 0.13214,-2.68052 0.0366,-1.2079 0.17637,-2.30817 0.33028,-3.50104 0.10638,-0.82442 0.22473,-1.68101 0.26423,-2.51018 0.0552,-1.15843 -0.0711,-0.51332 0.066,-1.51932 0.20881,-1.53122 0.0412,-0.12327 0.26424,-1.38721 0.1501,-0.27644 0.0225,-0.57499 0.0661,-0.85876 0.0848,-0.55099 0.2163,-1.17602 0.33028,-1.71749 0.0805,-0.38251 0.13039,-0.62923 0.19193,-0.59452 0.09,0.0508 0.23275,0.99933 0.25519,1.08162 0.18552,0.68029 0.64762,1.41893 1.0569,1.98173 1.16846,1.6066 2.45756,3.06088 3.83136,4.49191 0.5724,0.59624 1.04719,1.28566 1.65145,1.84962 0.77509,0.72342 0.86838,0.48887 1.38721,1.12297 0.61007,0.74568 1.11815,1.57814 1.65142,2.37808 0.16981,0.25468 0.30702,0.50517 0.52848,0.72662"
           transform="translate(-95.146974,4.4288963)" />
        <path
           style="fill:none;fill-opacity:1;stroke:#db0000;stroke-width:2.11667;stroke-linecap:round;stroke-linejoin:round;stroke-dasharray:none;stroke-opacity:1"
           d="m 429.43692,519.66703 c 1.26661,-0.53983 2.62881,-0.85448 4.00386,-0.92482 0.22131,-0.0113 0.44457,-0.0166 0.66059,-0.066 0.27169,-0.0621 0.52344,-0.19223 0.79269,-0.26424 0.21699,-0.058 0.44265,-0.0776 0.66056,-0.13213 0.36532,-0.0914 0.69937,-0.27818 1.05693,-0.39632 0.35103,-0.11598 0.72565,-0.1662 1.05693,-0.33031 0.15911,-0.0788 0.3048,-0.18239 0.46239,-0.26421 0.27241,-0.14143 0.57432,-0.21494 0.85875,-0.33031 0.49403,-0.20039 0.93698,-0.52757 1.45325,-0.66056 0.3336,-0.0859 0.68897,-0.0859 1.02257,0"
           id="path111"
           inkscape:path-effect="#path-effect111"
           inkscape:original-d="m 429.43692,519.66703 c 1.34916,-0.0458 2.6666,-0.64621 4.00386,-0.92482 0.21664,-0.0451 0.44479,-0.0169 0.66059,-0.066 0.27159,-0.0617 0.52398,-0.19095 0.79269,-0.26424 0.21664,-0.0591 0.44595,-0.0661 0.66056,-0.13213 0.35962,-0.11065 0.70109,-0.27401 1.05693,-0.39632 0.34906,-0.11999 0.71318,-0.19579 1.05693,-0.33031 0.16531,-0.0647 0.30051,-0.19137 0.46239,-0.26421 0.27969,-0.12586 0.5761,-0.2113 0.85875,-0.33031 0.47837,-0.20142 0.94044,-0.558 1.45325,-0.66056 0.30541,-0.0611 0.70504,0 1.02257,0"
           transform="translate(-95.146974,4.4288963)" />
        <path
           style="fill:none;fill-opacity:1;stroke:#db0000;stroke-width:1.05833;stroke-linecap:round;stroke-linejoin:round;stroke-dasharray:none;stroke-opacity:1"
           d="m 436.56273,508.72276 c 0.26158,-0.0612 0.54991,0.005 0.75891,0.17346 0.097,0.0783 0.17618,0.17599 0.26421,0.26424 0.3373,0.33813 0.79172,0.52766 1.18904,0.79269 0.28985,0.19334 0.55214,0.42902 0.85876,0.59449 0.2168,0.117 0.45314,0.19738 0.66055,0.33031 0.27613,0.17698 0.48641,0.43728 0.72666,0.66055 0.30788,0.28613 0.66968,0.51405 1.06071,0.66821"
           id="path112"
           inkscape:path-effect="#path-effect112"
           inkscape:original-d="m 436.56273,508.72276 c 0.25297,0.0578 0.52031,0.0714 0.75891,0.17346 0.11451,0.049 0.16377,0.19058 0.26421,0.26424 0.38412,0.28167 0.7988,0.51951 1.18904,0.79269 0.28522,0.19965 0.56136,0.41349 0.85876,0.59449 0.21029,0.12801 0.46024,0.18722 0.66055,0.33031 0.26639,0.19026 0.47517,0.451 0.72666,0.66055 0.0153,0.0127 1.29185,1.13052 1.06071,0.66821"
           transform="translate(-95.146974,4.4288963)" />
        <path
           style="fill:none;fill-opacity:1;stroke:#db0000;stroke-width:1.05833;stroke-linecap:round;stroke-linejoin:round;stroke-dasharray:none;stroke-opacity:1"
           d="m 439.78856,507.63921 c -0.0413,0.38838 -0.1492,0.76959 -0.31761,1.12199 -0.10619,0.22219 -0.23618,0.43301 -0.33028,0.66059 -0.12828,0.31022 -0.18683,0.64383 -0.25817,0.97185 -0.0713,0.32803 -0.15872,0.65896 -0.33634,0.94381 -0.042,0.0674 -0.0888,0.13166 -0.13214,0.19817 -0.32873,0.50427 -0.45004,1.1395 -0.33028,1.72942"
           id="path113"
           inkscape:path-effect="#path-effect113"
           inkscape:original-d="m 439.78856,507.63921 c -0.34473,0.30453 -0.17325,0.7611 -0.31761,1.12199 -0.0914,0.2286 -0.23161,0.43505 -0.33028,0.66059 -0.2673,0.61094 -0.34755,1.29828 -0.59451,1.91566 -0.0295,0.0737 -0.0966,0.12718 -0.13214,0.19817 -0.23476,0.46953 -0.33028,1.20346 -0.33028,1.72942"
           transform="translate(-95.146974,4.4288963)" />
        <path
           style="fill:none;fill-opacity:1;stroke:#db0000;stroke-width:1.05833;stroke-linecap:round;stroke-linejoin:round;stroke-dasharray:none;stroke-opacity:1"
           d="m 436.56273,510.89959 c 0.36514,-0.10802 0.71608,-0.26391 1.04103,-0.46241 0.10959,-0.067 0.2164,-0.13881 0.33028,-0.19818 0.2616,-0.13639 0.55358,-0.20337 0.84474,-0.25096 0.29115,-0.0476 0.58571,-0.0772 0.87275,-0.14538 0.33279,-0.079 0.65328,-0.2092 0.99087,-0.26422 0.23449,-0.0382 0.47332,-0.0395 0.70963,-0.064 0.2363,-0.0246 0.47584,-0.0747 0.67758,-0.20019 0.0674,-0.0419 0.12977,-0.0918 0.19817,-0.13211 0.13859,-0.0817 0.30106,-0.12237 0.4618,-0.11553 0.16074,0.007 0.31917,0.0611 0.45032,0.15433"
           id="path114"
           inkscape:path-effect="#path-effect114"
           inkscape:original-d="m 436.56273,510.89959 c 0.30999,-0.30173 0.63942,-0.2903 1.04103,-0.46241 0.11801,-0.0506 0.20773,-0.15986 0.33028,-0.19818 0.51774,-0.16179 1.18563,-0.2545 1.71749,-0.39634 1.04045,-0.27744 -0.73596,0.008 0.99087,-0.26422 0.4586,-0.0724 0.9417,-0.13057 1.38721,-0.26423 0.076,-0.0228 0.12287,-0.10703 0.19817,-0.13211 0.18399,-0.0613 0.79817,-0.15846 0.91212,0.0388"
           transform="translate(-95.146974,4.4288963)" />
        <rect
           style="opacity:1;fill:#000000;fill-opacity:0.15709819;stroke:none;stroke-width:0.529167;stroke-linecap:round;stroke-linejoin:round;stroke-dasharray:none;stroke-dashoffset:0;stroke-opacity:1"
           id="rect50"
           width="110.82986"
           height="7.6935444"
           x="328.08334"
           y="547.6875"
           rx="0"
           ry="0" />
        <rect
           style="opacity:1;fill:#000000;fill-opacity:0.15709819;stroke:none;stroke-width:0.455225;stroke-linecap:round;stroke-linejoin:round;stroke-dasharray:none;stroke-dashoffset:0;stroke-opacity:1"
           id="rect51"
           width="82.020798"
           height="7.6935444"
           x="328.08334"
           y="558.27087"
           rx="0"
           ry="0" />
        <rect
           style="opacity:1;fill:#000000;fill-opacity:0.15709819;stroke:none;stroke-width:0.504007;stroke-linecap:round;stroke-linejoin:round;stroke-dasharray:none;stroke-dashoffset:0;stroke-opacity:1"
           id="rect52"
           width="100.54163"
           height="7.6935444"
           x="328.08334"
           y="568.85425"
           rx="0"
           ry="0" />
        <rect
           style="opacity:1;fill:#000000;fill-opacity:0.15709819;stroke:none;stroke-width:0.542339;stroke-linecap:round;stroke-linejoin:round;stroke-dasharray:none;stroke-dashoffset:0;stroke-opacity:1"
           id="rect53"
           width="116.41665"
           height="7.6935444"
           x="328.08334"
           y="584.72931"
           rx="0"
           ry="0" />
        <rect
           style="opacity:1;fill:#000000;fill-opacity:0.15709819;stroke:none;stroke-width:0.424841;stroke-linecap:round;stroke-linejoin:round;stroke-dasharray:none;stroke-dashoffset:0;stroke-opacity:1"
           id="rect54"
           width="71.437469"
           height="7.6935444"
           x="328.08334"
           y="595.31268"
           rx="0"
           ry="0" />
        <rect
           style="opacity:1;fill:#000000;fill-opacity:0.15709819;stroke:none;stroke-width:0.510595;stroke-linecap:round;stroke-linejoin:round;stroke-dasharray:none;stroke-dashoffset:0;stroke-opacity:1"
           id="rect55"
           width="103.18747"
           height="7.6935444"
           x="328.08334"
           y="611.18774"
           rx="0"
           ry="0" />
        <rect
           style="opacity:1;fill:#000000;fill-opacity:0.15709819;stroke:none;stroke-width:0.529869;stroke-linecap:round;stroke-linejoin:round;stroke-dasharray:none;stroke-dashoffset:0;stroke-opacity:1"
           id="rect56"
           width="111.12497"
           height="7.6935444"
           x="328.08334"
           y="621.77112"
           rx="0"
           ry="0" />
        <rect
           style="opacity:1;fill:#000000;fill-opacity:0.15709819;stroke:none;stroke-width:0.504006;stroke-linecap:round;stroke-linejoin:round;stroke-dasharray:none;stroke-dashoffset:0;stroke-opacity:1"
           id="rect57"
           width="100.54164"
           height="7.6935444"
           x="328.08334"
           y="632.35449"
           rx="0"
           ry="0" />
        <rect
           style="opacity:1;fill:#000000;fill-opacity:0.15709819;stroke:none;stroke-width:0.517099;stroke-linecap:round;stroke-linejoin:round;stroke-dasharray:none;stroke-dashoffset:0;stroke-opacity:1"
           id="rect58"
           width="105.83329"
           height="7.6935444"
           x="328.08334"
           y="642.93787"
           rx="0"
           ry="0" />
        <rect
           style="opacity:1;fill:#000000;fill-opacity:0.15709819;stroke:none;stroke-width:0.483702;stroke-linecap:round;stroke-linejoin:round;stroke-dasharray:none;stroke-dashoffset:0;stroke-opacity:1"
           id="rect59"
           width="92.604149"
           height="7.6935444"
           x="328.08334"
           y="653.52124"
           rx="0"
           ry="0" />
      </g>
    </g>
  </g>
</svg>
