<?xml version="1.0" encoding="UTF-8" standalone="no"?>
<svg
   viewBox="0 -256 48 48"
   id="svg3013"
   version="1.1"
   inkscape:version="1.2.2 (b0a8486541, 2022-12-01)"
   width="48"
   height="48"
   sodipodi:docname="phone.svg"
   xmlns:inkscape="http://www.inkscape.org/namespaces/inkscape"
   xmlns:sodipodi="http://sodipodi.sourceforge.net/DTD/sodipodi-0.dtd"
   xmlns="http://www.w3.org/2000/svg"
   xmlns:svg="http://www.w3.org/2000/svg"
   xmlns:rdf="http://www.w3.org/1999/02/22-rdf-syntax-ns#"
   xmlns:cc="http://creativecommons.org/ns#"
   xmlns:dc="http://purl.org/dc/elements/1.1/">
  <metadata
     id="metadata3023">
    <rdf:RDF>
      <cc:Work
         rdf:about="">
        <dc:format>image/svg+xml</dc:format>
        <dc:type
           rdf:resource="http://purl.org/dc/dcmitype/StillImage" />
      </cc:Work>
    </rdf:RDF>
  </metadata>
  <defs
     id="defs3021" />
  <sodipodi:namedview
     pagecolor="#ffffff"
     bordercolor="#666666"
     borderopacity="1"
     objecttolerance="10"
     gridtolerance="10"
     guidetolerance="10"
     inkscape:pageopacity="0"
     inkscape:pageshadow="2"
     inkscape:window-width="1920"
     inkscape:window-height="1012"
     id="namedview3019"
     showgrid="false"
     inkscape:zoom="2.1071429"
     inkscape:cx="-119.35593"
     inkscape:cy="-36.067796"
     inkscape:window-x="0"
     inkscape:window-y="0"
     inkscape:window-maximized="1"
     inkscape:current-layer="svg3013"
     inkscape:showpageshadow="0"
     inkscape:pagecheckerboard="0"
     inkscape:deskcolor="#d1d1d1" />
  <g
     transform="matrix(0.02272727,0,0,-0.02272727,8.0000019,-214)"
     id="g6940"
     style="fill:#000000;fill-opacity:1;opacity:0.12">
    <path
       d="m 1408,296 q 0,-27 -10,-70.5 Q 1388,182 1377,157 1356,107 1255,51 1161,0 1069,0 1042,0 1016.5,3.5 991,7 959,16 927,25 911.5,30.5 896,36 856,51 816,66 807,69 709,104 632,152 504,231 367.5,367.5 231,504 152,632 104,709 69,807 66,816 51,856 36,896 30.5,911.5 25,927 16,959 7,991 3.5,1016.5 0,1042 0,1069 q 0,92 51,186 56,101 106,122 25,11 68.5,21 43.5,10 70.5,10 14,0 21,-3 18,-6 53,-76 11,-19 30,-54 19,-35 35,-63.5 16,-28.5 31,-53.5 3,-4 17.5,-25 14.5,-21 21.5,-35.5 7,-14.5 7,-28.5 0,-20 -28.5,-50 -28.5,-30 -62,-55 -33.5,-25 -62,-53 -28.5,-28 -28.5,-46 0,-9 5,-22.5 5,-13.5 8.5,-20.5 3.5,-7 14,-24 10.5,-17 11.5,-19 76,-137 174,-235 98,-98 235,-174 2,-1 19,-11.5 17,-10.5 24,-14 7,-3.5 20.5,-8.5 13.5,-5 22.5,-5 18,0 46,28.5 28,28.5 53,62 25,33.5 55,62 30,28.5 50,28.5 14,0 28.5,-7 14.5,-7 35.5,-21.5 21,-14.5 25,-17.5 25,-15 53.5,-31 28.5,-16 63.5,-35 35,-19 54,-30 70,-35 76,-53 3,-7 3,-21 z"
       id="path6938"
       inkscape:connector-curvature="0"
       style="fill:#000000;fill-opacity:1" />
  </g>
  <g
     transform="matrix(0.02272727,0,0,-0.02272727,8.0000019,-216)"
     id="g3015"
     style="fill:#3077fa;fill-opacity:1">
    <path
       d="m 1408,296 q 0,-27 -10,-70.5 Q 1388,182 1377,157 1356,107 1255,51 1161,0 1069,0 1042,0 1016.5,3.5 991,7 959,16 927,25 911.5,30.5 896,36 856,51 816,66 807,69 709,104 632,152 504,231 367.5,367.5 231,504 152,632 104,709 69,807 66,816 51,856 36,896 30.5,911.5 25,927 16,959 7,991 3.5,1016.5 0,1042 0,1069 q 0,92 51,186 56,101 106,122 25,11 68.5,21 43.5,10 70.5,10 14,0 21,-3 18,-6 53,-76 11,-19 30,-54 19,-35 35,-63.5 16,-28.5 31,-53.5 3,-4 17.5,-25 14.5,-21 21.5,-35.5 7,-14.5 7,-28.5 0,-20 -28.5,-50 -28.5,-30 -62,-55 -33.5,-25 -62,-53 -28.5,-28 -28.5,-46 0,-9 5,-22.5 5,-13.5 8.5,-20.5 3.5,-7 14,-24 10.5,-17 11.5,-19 76,-137 174,-235 98,-98 235,-174 2,-1 19,-11.5 17,-10.5 24,-14 7,-3.5 20.5,-8.5 13.5,-5 22.5,-5 18,0 46,28.5 28,28.5 53,62 25,33.5 55,62 30,28.5 50,28.5 14,0 28.5,-7 14.5,-7 35.5,-21.5 21,-14.5 25,-17.5 25,-15 53.5,-31 28.5,-16 63.5,-35 35,-19 54,-30 70,-35 76,-53 3,-7 3,-21 z"
       id="path3017"
       inkscape:connector-curvature="0"
       style="fill:#3077fa;fill-opacity:1" />
  </g>
</svg>
