<?xml version="1.0" encoding="UTF-8" standalone="no"?>
<svg
   width="800"
   height="1200"
   viewBox="0 0 211.66666 317.5"
   version="1.1"
   id="svg1"
   sodipodi:docname="top-right.svg"
   inkscape:version="1.3.2 (091e20ef0f, 2023-11-25, custom)"
   xmlns:inkscape="http://www.inkscape.org/namespaces/inkscape"
   xmlns:sodipodi="http://sodipodi.sourceforge.net/DTD/sodipodi-0.dtd"
   xmlns="http://www.w3.org/2000/svg"
   xmlns:svg="http://www.w3.org/2000/svg">
  <sodipodi:namedview
     id="namedview1"
     pagecolor="#ffffff"
     bordercolor="#000000"
     borderopacity="0.25"
     inkscape:showpageshadow="2"
     inkscape:pageopacity="0.0"
     inkscape:pagecheckerboard="0"
     inkscape:deskcolor="#d1d1d1"
     inkscape:zoom="1.2905299"
     inkscape:cx="214.25307"
     inkscape:cy="963.55768"
     inkscape:window-width="1920"
     inkscape:window-height="1018"
     inkscape:window-x="0"
     inkscape:window-y="26"
     inkscape:window-maximized="1"
     inkscape:current-layer="layer1" />
  <defs
     id="defs1">
    <clipPath
       clipPathUnits="userSpaceOnUse"
       id="clipPath12">
      <rect
         style="fill:#ffdfb4;fill-opacity:1;stroke:#000000;stroke-width:0;stroke-linecap:round;stroke-linejoin:round;stroke-opacity:1"
         id="rect13"
         width="508"
         height="253.99989"
         x="-2.4999999e-06"
         y="211.66664"
         rx="0.70019102"
         ry="0.84022892" />
    </clipPath>
    <clipPath
       clipPathUnits="userSpaceOnUse"
       id="clipPath1">
      <rect
         style="fill:#ffdfb4;fill-opacity:1;stroke:#000000;stroke-width:0;stroke-linecap:round;stroke-linejoin:round;stroke-opacity:1"
         id="rect1"
         width="508"
         height="253.99989"
         x="-2.4999999e-06"
         y="211.66664"
         rx="0.70019102"
         ry="0.84022892" />
    </clipPath>
    <marker
       style="overflow:visible"
       id="ArrowWide"
       refX="0"
       refY="0"
       orient="auto-start-reverse"
       markerWidth="1"
       markerHeight="1"
       viewBox="0 0 1 1"
       preserveAspectRatio="xMidYMid">
      <path
         style="fill:none;stroke:context-stroke;stroke-width:1;stroke-linecap:butt"
         d="M 3,-3 0,0 3,3"
         transform="rotate(180,0.125,0)"
         id="path40" />
    </marker>
  </defs>
  <g
     id="layer1"
     transform="matrix(-1.0041551,0,0,0.99910074,209.8013,0)"
     style="opacity:0.21035028">
    <rect
       style="fill:#362cb3;fill-opacity:1;stroke:none;stroke-width:0.409891;stroke-linecap:round;stroke-linejoin:round;opacity:0.5"
       id="rect3"
       width="15.874998"
       height="116.41666"
       x="53.025372"
       y="0"
       rx="0"
       ry="0" />
    <rect
       style="fill:#ffa521;fill-opacity:1;stroke:none;stroke-width:0.289837;stroke-linecap:round;stroke-linejoin:round;opacity:0.5"
       id="rect4"
       width="15.874998"
       height="58.208328"
       x="71.546204"
       y="1.5258789e-05"
       rx="0"
       ry="0" />
    <rect
       style="fill:#f43939;fill-opacity:1;stroke:none;stroke-width:0.314917;stroke-linecap:round;stroke-linejoin:round;opacity:0.5"
       id="rect5"
       width="15.874998"
       height="68.717743"
       x="90.067039"
       y="0.065170288"
       rx="0"
       ry="0" />
    <rect
       style="fill:#362cb3;fill-opacity:1;stroke:none;stroke-width:0.37076;stroke-linecap:round;stroke-linejoin:round;opacity:0.5"
       id="rect6"
       width="15.874998"
       height="95.249992"
       x="121.81703"
       y="0"
       rx="0"
       ry="0" />
    <rect
       style="fill:#ffa521;fill-opacity:1;stroke:none;stroke-width:0.47865;stroke-linecap:round;stroke-linejoin:round;opacity:0.5"
       id="rect8"
       width="15.874998"
       height="158.74994"
       x="140.33783"
       y="1.5258789e-05"
       rx="0"
       ry="0" />
    <rect
       style="fill:#f43939;fill-opacity:1;stroke:none;stroke-width:0.445494;stroke-linecap:round;stroke-linejoin:round;opacity:0.5"
       id="rect9"
       width="15.874998"
       height="137.51817"
       x="158.85867"
       y="0.065170288"
       rx="0"
       ry="0" />
    <g
       id="path39"
       style="opacity:0.5">
      <path
         style="color:#000000;fill:#ffa521;stroke-linecap:round;stroke-linejoin:round;-inkscape-stroke:none"
         d="m 0.54296875,165.71094 a 1.5875,1.5875 0 0 0 -0.33203125,2.2207 l 32.6562495,44.13672 a 1.5876587,1.5876587 0 0 0 2.671875,-0.18555 l 7.119141,-13.11133 14.388672,19.1875 a 1.5876587,1.5876587 0 0 0 2.648437,-0.16601 l 19.976563,-34.96094 9.132812,11.99805 a 1.5876587,1.5876587 0 0 0 2.626954,-0.14844 l 10.980469,-18.45703 33.85156,69.76367 a 1.5876587,1.5876587 0 0 0 2.63672,0.33594 l 9.02734,-10.58789 20.09375,40.1875 a 1.5876587,1.5876587 0 0 0 2.87891,-0.084 l 15.875,-37.04101 a 1.5876587,1.5876587 0 0 0 0.0117,-0.0254 l 14.88672,-36.36719 a 1.5875,1.5875 0 0 0 -0.86914,-2.07031 1.5875,1.5875 0 0 0 -2.07032,0.86718 l -14.88085,36.35547 -14.52344,33.88477 -19.63477,-39.27149 a 1.5876587,1.5876587 0 0 0 -2.6289,-0.32031 l -9.00586,10.56446 -34.08008,-70.22852 a 1.5876587,1.5876587 0 0 0 -2.79102,-0.11719 l -11.2832,18.9668 -9.160156,-12.03516 a 1.5876587,1.5876587 0 0 0 -2.640625,0.17383 L 58.138672,214.12109 43.712891,194.88672 a 1.5876587,1.5876587 0 0 0 -2.666016,0.19531 L 33.9375,208.17578 2.7636719,166.04297 a 1.5875,1.5875 0 0 0 -2.22070315,-0.33203 z"
         id="path3" />
      <g
         id="g2">
        <path
           style="color:#000000;fill:#ffa521;-inkscape-stroke:none"
           d="m 201.35547,198.99219 -13.88867,5.82031 1.22851,2.92969 10.95899,-4.59375 4.59375,10.95898 2.92773,-1.22656 z"
           id="path2" />
      </g>
    </g>
  </g>
</svg>
