<?xml version="1.0" encoding="UTF-8" standalone="no"?>
<svg
   width="800"
   height="1200"
   viewBox="0 0 211.66666 317.5"
   version="1.1"
   id="svg1"
   sodipodi:docname="top-left.svg"
   inkscape:version="1.3.2 (091e20ef0f, 2023-11-25, custom)"
   xmlns:inkscape="http://www.inkscape.org/namespaces/inkscape"
   xmlns:sodipodi="http://sodipodi.sourceforge.net/DTD/sodipodi-0.dtd"
   xmlns="http://www.w3.org/2000/svg"
   xmlns:svg="http://www.w3.org/2000/svg">
  <sodipodi:namedview
     id="namedview1"
     pagecolor="#ffffff"
     bordercolor="#000000"
     borderopacity="0.25"
     inkscape:showpageshadow="2"
     inkscape:pageopacity="0.0"
     inkscape:pagecheckerboard="0"
     inkscape:deskcolor="#d1d1d1"
     inkscape:zoom="3.2498932"
     inkscape:cx="641.7134"
     inkscape:cy="650.94447"
     inkscape:window-width="1920"
     inkscape:window-height="1018"
     inkscape:window-x="0"
     inkscape:window-y="26"
     inkscape:window-maximized="1"
     inkscape:current-layer="path39"
     showgrid="false" />
  <defs
     id="defs1">
    <clipPath
       clipPathUnits="userSpaceOnUse"
       id="clipPath12">
      <rect
         style="fill:#ffdfb4;fill-opacity:1;stroke:#000000;stroke-width:0;stroke-linecap:round;stroke-linejoin:round;stroke-opacity:1"
         id="rect13"
         width="508"
         height="253.99989"
         x="-2.4999999e-06"
         y="211.66664"
         rx="0.70019102"
         ry="0.84022892" />
    </clipPath>
    <clipPath
       clipPathUnits="userSpaceOnUse"
       id="clipPath1">
      <rect
         style="fill:#ffdfb4;fill-opacity:1;stroke:#000000;stroke-width:0;stroke-linecap:round;stroke-linejoin:round;stroke-opacity:1"
         id="rect1"
         width="508"
         height="253.99989"
         x="-2.4999999e-06"
         y="211.66664"
         rx="0.70019102"
         ry="0.84022892" />
    </clipPath>
    <marker
       style="overflow:visible"
       id="ArrowWide"
       refX="0"
       refY="0"
       orient="auto-start-reverse"
       markerWidth="1"
       markerHeight="1"
       viewBox="0 0 1 1"
       preserveAspectRatio="xMidYMid">
      <path
         style="fill:none;stroke:context-stroke;stroke-width:1;stroke-linecap:butt"
         d="M 3,-3 0,0 3,3"
         transform="rotate(180,0.125,0)"
         id="path40" />
    </marker>
  </defs>
  <g
     id="layer1">
    <rect
       style="fill:#362cb3;fill-opacity:1;stroke:none;stroke-width:0.409891;stroke-linecap:round;stroke-linejoin:round"
       id="rect3"
       width="15.874998"
       height="116.41666"
       x="53.025372"
       y="0"
       rx="0"
       ry="0" />
    <rect
       style="fill:#ffa521;fill-opacity:1;stroke:none;stroke-width:0.289837;stroke-linecap:round;stroke-linejoin:round"
       id="rect4"
       width="15.874998"
       height="58.208328"
       x="71.546204"
       y="1.5258789e-05"
       rx="0"
       ry="0" />
    <rect
       style="fill:#f43939;fill-opacity:1;stroke:none;stroke-width:0.314917;stroke-linecap:round;stroke-linejoin:round"
       id="rect5"
       width="15.874998"
       height="68.717743"
       x="90.067039"
       y="0.065170288"
       rx="0"
       ry="0" />
    <rect
       style="fill:#362cb3;fill-opacity:1;stroke:none;stroke-width:0.37076;stroke-linecap:round;stroke-linejoin:round"
       id="rect6"
       width="15.874998"
       height="95.249992"
       x="121.81703"
       y="0"
       rx="0"
       ry="0" />
    <rect
       style="fill:#ffa521;fill-opacity:1;stroke:none;stroke-width:0.47865;stroke-linecap:round;stroke-linejoin:round"
       id="rect8"
       width="15.874998"
       height="158.74994"
       x="140.33783"
       y="1.5258789e-05"
       rx="0"
       ry="0" />
    <rect
       style="fill:#f43939;fill-opacity:1;stroke:none;stroke-width:0.445494;stroke-linecap:round;stroke-linejoin:round"
       id="rect9"
       width="15.874998"
       height="137.51817"
       x="158.85867"
       y="0.065170288"
       rx="0"
       ry="0" />
    <g
       id="path39">
      <path
         style="color:#000000;fill:#ffa521;stroke-linecap:round;stroke-linejoin:round;-inkscape-stroke:none"
         d="M 0.54296875,112.74609 A 1.5875,1.5875 0 0 0 0.2109375,114.9668 l 32.6562495,44.13672 a 1.5876587,1.5876587 0 0 0 2.671875,-0.18555 l 7.117188,-13.10938 14.390625,19.18555 a 1.5876587,1.5876587 0 0 0 2.648437,-0.16406 l 19.976563,-34.96289 9.132812,12 a 1.5876587,1.5876587 0 0 0 2.626954,-0.15039 l 10.980469,-18.45703 33.85156,69.76367 a 1.5876587,1.5876587 0 0 0 2.63672,0.33593 l 9.02734,-10.58789 20.09375,40.1875 a 1.5876587,1.5876587 0 0 0 2.87891,-0.084 l 15.875,-37.04102 a 1.5876587,1.5876587 0 0 0 0.0117,-0.0234 l 14.88672,-36.36914 a 1.5875,1.5875 0 0 0 -0.86914,-2.07032 1.5875,1.5875 0 0 0 -2.07032,0.86914 l -14.88085,36.35547 -14.52344,33.88282 -19.63477,-39.27149 a 1.5876587,1.5876587 0 0 0 -2.6289,-0.32031 l -9.00586,10.56445 -34.08008,-70.22656 a 1.5876587,1.5876587 0 0 0 -2.79102,-0.11914 l -11.2832,18.9668 -9.160156,-12.03321 a 1.5876587,1.5876587 0 0 0 -2.640625,0.17383 L 58.138672,161.15625 43.712891,141.92187 a 1.5876587,1.5876587 0 0 0 -2.666016,0.19532 L 33.9375,155.21289 2.7636719,113.07813 a 1.5875,1.5875 0 0 0 -2.22070315,-0.33204 z"
         id="path3" />
      <g
         id="g2">
        <path
           style="color:#000000;fill:#ffa521;-inkscape-stroke:none"
           d="m 201.35547,146.0293 -13.88867,5.82031 1.22851,2.92773 10.95899,-4.59375 4.59375,10.95899 2.92773,-1.22656 z"
           id="path2" />
      </g>
    </g>
  </g>
</svg>
